HIERARCHY
ROOT hip
{
	OFFSET 0.000000 0.000000 0.000000 
	CHANNELS 6 Xposition Yposition Zposition Xrotation Zrotation Yrotation
	JOINT abdomen
	{
		OFFSET 0.000000 3.402643 0.000000 
		CHANNELS 3 Xrotation Zrotation Yrotation
		JOINT chest
		{
			OFFSET 0.000000 8.438565 -0.680529 
			CHANNELS 3 Xrotation Zrotation Yrotation
			JOINT neck
			{
				OFFSET 0.000000 9.885400 -0.272212 
				CHANNELS 3 Xrotation Zrotation Yrotation
				JOINT head
				{
					OFFSET 0.000000 3.130431 0.000000 
					CHANNELS 3 Xrotation Zrotation Yrotation
					End Site
					{
						OFFSET 0.000000 3.039250 0.000000 
					}
				}
			}
			JOINT lCollar
			{
				OFFSET 3.238290 6.669187 -0.816635 
				CHANNELS 3 Yrotation Zrotation Xrotation
				JOINT lShldr
				{
					OFFSET 2.515050 0.000000 0.000000 
					CHANNELS 3 Zrotation Yrotation Xrotation
					JOINT lForeArm
					{
						OFFSET 11.517700 0.000000 0.000000 
						CHANNELS 3 Yrotation Zrotation Xrotation
						JOINT lHand
						{
							OFFSET 9.026700 0.000000 0.000000 
							CHANNELS 3 Zrotation Yrotation Xrotation
							End Site
							{
								OFFSET 4.028470 0.000000 0.000000 
							}
						}
					}
				}
			}
			JOINT rCollar
			{
				OFFSET -3.238290 6.669187 -0.816635 
				CHANNELS 3 Yrotation Zrotation Xrotation
				JOINT rShldr
				{
					OFFSET -2.515050 0.000000 0.000000 
					CHANNELS 3 Zrotation Yrotation Xrotation
					JOINT rForeArm
					{
						OFFSET -11.517700 0.000000 0.000000 
						CHANNELS 3 Yrotation Zrotation Xrotation
						JOINT rHand
						{
							OFFSET -9.026700 0.000000 0.000000 
							CHANNELS 3 Zrotation Yrotation Xrotation
							End Site
							{
								OFFSET -4.028470 0.000000 0.000000 
							}
						}
					}
				}
			}
		}
	}
	JOINT lThigh
	{
		OFFSET 4.983750 -1.633274 1.361059 
		CHANNELS 3 Xrotation Zrotation Yrotation
		JOINT lShin
		{
			OFFSET -2.041588 -20.007561 0.000000 
			CHANNELS 3 Xrotation Zrotation Yrotation
			JOINT lFoot
			{
				OFFSET 0.000000 -19.190928 -1.224953 
				CHANNELS 3 Xrotation Yrotation Zrotation
				End Site
				{
					OFFSET 0.000000 -2.449906 4.627600 
				}
			}
		}
	}
	JOINT rThigh
	{
		OFFSET -4.983750 -1.633274 1.361059 
		CHANNELS 3 Xrotation Zrotation Yrotation
		JOINT rShin
		{
			OFFSET 2.041588 -20.007561 0.000000 
			CHANNELS 3 Xrotation Zrotation Yrotation
			JOINT rFoot
			{
				OFFSET 0.000000 -19.190928 -1.224953 
				CHANNELS 3 Xrotation Yrotation Zrotation
				End Site
				{
					OFFSET 0.000000 -2.449906 4.627600 
				}
			}
		}
	}
}
MOTION
Frames: 13
Frame Time: 0.047668
0.078050 44.179489 1.342547 10.602200 -1.987000 -11.973500 -16.076445 2.310715 -1.730703 -6.889905 0.990307 -0.741730 2.689580 -17.197901 12.404500 9.276870 -1.955840 5.924720 2.000000 -2.000000 0.000000 -72.644501 -32.165199 146.600998 107.519997 -0.170751 0.149492 0.281946 -0.140827 104.455002 -2.000000 2.000000 0.000000 92.621101 73.420502 -100.950996 -99.453499 0.193997 0.115471 -0.060806 -0.035131 -120.671997 3.891890 4.284339 -46.343410 -1.096905 4.385501 -0.197015 -59.714909 44.308727 48.386814 -6.053343 6.550526 24.113827 0.745069 -1.194391 -0.300099 -3.678974 -15.076221 -1.860149 
0.145755 44.184490 1.304860 10.776900 -1.813170 -12.132300 -15.646734 1.540007 -1.248072 -6.705744 0.660003 -0.534888 1.000830 -15.896500 11.857600 8.153120 -1.469660 5.627230 2.000000 -2.000000 0.000000 -73.994797 -32.924900 147.593994 108.056999 -0.169444 0.149072 0.281922 -0.140840 104.464996 -2.000000 2.000000 0.000000 125.110001 71.774101 -72.249496 -98.848099 0.195322 0.115684 -0.058833 -0.037471 -123.416000 3.658580 4.038378 -46.465092 -0.956458 4.368124 -0.186271 -60.367287 43.609901 48.608459 -6.320127 6.355504 24.399734 0.757315 -1.140724 -0.310092 -3.669223 -15.120931 -1.920033 
0.093134 44.155914 1.245222 10.631600 -2.006010 -12.124600 -15.036050 0.803775 -0.884790 -6.444022 0.344475 -0.379196 2.597550 -17.090599 11.250200 8.514650 -1.839660 5.452110 2.000000 -2.000000 0.000000 -75.852097 -32.942001 148.815002 108.135002 -0.169254 0.149010 0.282665 -0.140432 104.162003 -2.000000 2.000000 0.000000 124.986000 66.175903 -76.057800 -99.082397 0.194809 0.115603 -0.055176 -0.015780 -131.276993 3.706977 4.310473 -45.881313 -1.039949 4.379085 -0.206492 -59.041229 44.541103 47.777527 -6.148856 6.441449 24.033382 0.540665 -0.975761 -0.337961 -3.714987 -14.680641 -2.015884 
-0.000315 44.140278 1.167899 10.765400 -2.849430 -10.971500 -14.426790 1.105597 -1.498393 -6.182910 0.473827 -0.642168 4.602420 -18.378700 10.833300 9.199090 -2.257410 5.392210 2.000000 -2.000000 0.000000 -75.912804 -33.497002 149.597000 107.481003 -0.170847 0.149522 0.283787 -0.139806 103.703003 -2.000000 2.000000 0.000000 93.599602 64.612198 -101.608002 -102.442001 0.187497 0.114214 -0.055601 -0.019613 -129.899994 3.306921 5.375305 -45.950489 -1.057002 4.485435 -0.209602 -56.366241 46.548424 46.071861 -6.141764 7.336643 23.365143 0.599856 -1.009193 -0.325997 -3.735260 -15.107294 -2.061798 
0.007830 44.156563 1.194414 10.990400 -2.856870 -10.896700 -14.441630 0.827293 -1.456010 -6.189270 0.354554 -0.624004 7.074060 -18.872101 10.253800 9.981150 -2.353160 5.331370 2.000000 -2.000000 0.000000 -75.902603 -33.546600 149.235992 107.255997 -0.171395 0.149694 0.282305 -0.140630 104.308998 -2.000000 2.000000 0.000000 69.375099 60.128502 -122.150002 -104.551003 0.182952 0.113123 -0.055258 -0.016596 -130.983994 3.011361 5.501517 -45.913158 -1.136636 4.375364 -0.206479 -56.604851 46.021088 46.092091 -6.323972 7.365985 23.396500 0.560160 -0.998088 -0.327317 -3.690264 -15.294955 -2.080996 
0.030915 44.149635 1.249496 10.902100 -2.828950 -11.111300 -13.941200 1.008369 -1.625129 -5.974800 0.432158 -0.696484 9.042670 -19.483700 9.951360 10.704700 -2.467750 5.346630 2.000000 -2.000000 0.000000 -76.606201 -33.643700 149.479996 107.685997 -0.170347 0.149364 0.283023 -0.140233 104.015999 -2.000000 2.000000 0.000000 65.494598 50.839401 -127.891998 -103.106003 0.186062 0.113888 -0.055487 -0.018662 -130.242004 3.299942 5.328683 -46.041874 -1.043882 4.498505 -0.209442 -57.321220 45.631939 46.538883 -6.196199 7.252732 23.240557 0.523206 -0.941190 -0.348682 -3.644529 -15.028586 -2.090443 
0.062364 44.140530 1.283929 11.019100 -2.789490 -11.099900 -13.929300 1.204700 -1.518826 -5.969700 0.516300 -0.650926 9.778180 -19.980900 9.646100 10.959700 -2.699630 5.268280 2.000000 -2.000000 0.000000 -77.124603 -33.887299 149.764008 107.286003 -0.171323 0.149671 0.280670 -0.141515 104.973000 -2.000000 2.000000 0.000000 65.956596 39.750301 -130.949997 -102.656998 0.187032 0.114110 -0.055973 -0.022432 -128.884995 3.280468 5.295699 -46.318291 -1.102622 4.484412 -0.228693 -57.946350 45.305580 46.986462 -6.255343 7.194277 23.485649 0.458181 -0.929973 -0.331176 -3.661900 -15.312096 -2.136878 
0.074421 44.144890 1.318500 11.100100 -3.066650 -10.445300 -13.873509 1.806797 -1.687326 -5.945790 0.774341 -0.723140 11.002500 -20.225500 9.681960 11.565500 -2.619810 5.337930 2.000000 -2.000000 0.000000 -77.426903 -33.927101 149.401993 107.490997 -0.170823 0.149515 0.280743 -0.141477 104.943001 -2.000000 2.000000 0.000000 69.919899 28.717699 -132.535995 -102.842003 0.186631 0.114020 -0.055689 -0.020318 -129.645996 2.902507 5.664214 -45.890697 -1.144228 4.383331 -0.226450 -55.687504 46.252686 45.227650 -6.188001 7.414020 23.454668 0.418446 -0.937469 -0.332273 -3.826365 -15.953018 -2.285415 
0.109112 44.110031 1.289655 11.288000 -2.231420 -13.492200 -13.362720 1.133482 -0.459799 -5.726880 0.485778 -0.197057 10.493400 -20.372299 10.008900 11.448800 -2.765530 5.470810 2.000000 -2.000000 0.000000 -75.722900 -33.052700 147.194000 108.085999 -0.169373 0.149049 0.281705 -0.140957 104.553001 -2.000000 2.000000 0.000000 87.603302 34.754902 -120.174004 -101.337997 0.189890 0.114717 -0.055037 -0.014310 -131.804993 3.529122 4.804993 -45.529572 -1.134403 4.386109 -0.197160 -61.351048 42.319431 48.994198 -6.743304 6.955148 24.246527 0.517953 -1.008964 -0.318693 -3.324337 -14.042436 -1.737172 
0.121947 44.168732 1.198429 11.567900 -1.741260 -15.942400 -13.756470 0.347550 1.508647 -5.895630 0.148950 0.646563 14.896400 -16.216000 9.604080 13.261500 -0.529944 5.472820 2.000000 -2.000000 0.000000 -77.906898 -34.776600 149.472000 108.096001 -0.169349 0.149041 0.281489 -0.141075 104.640999 -2.000000 2.000000 0.000000 118.939003 51.455299 -93.471001 -97.705498 0.197827 0.116048 -0.056300 0.024624 -145.750000 3.386457 4.333591 -43.879654 -0.866998 4.446289 -0.188390 -63.203667 40.158642 49.681271 -7.249759 6.486847 23.939714 0.016480 -0.816020 -0.297620 -2.561043 -11.407793 -1.348647 
0.071012 44.246391 1.207402 11.561800 -2.248400 -14.268500 -14.311129 -0.673365 1.504755 -6.133341 -0.288585 0.644895 10.889000 -20.836500 9.162840 11.919300 -3.014950 4.983590 2.000000 -2.000000 0.000000 -76.855003 -35.624500 150.294006 107.764000 -0.170157 0.149303 0.281513 -0.141062 104.630997 -2.000000 2.000000 0.000000 -32.621799 118.755997 115.278000 -92.353897 0.209635 0.117087 -0.069978 0.042793 -152.389999 3.120347 4.864084 -44.752197 -0.873498 4.474764 -0.199172 -61.564846 42.232952 49.161613 -7.119278 6.881429 23.638868 0.259374 -0.890360 -0.328047 -3.166387 -12.327913 -1.604779 
0.043319 44.265491 1.238931 11.642300 -2.525150 -14.065400 -14.611660 -1.698298 2.924222 -6.262140 -0.727842 1.253238 11.855800 -19.883200 7.789680 12.212100 -2.897390 4.408730 2.000000 -2.000000 0.000000 -77.994499 -36.250702 154.343994 107.070999 -0.171848 0.149834 0.281826 -0.140892 104.503998 -2.000000 2.000000 0.000000 -27.868000 117.033997 118.345001 -91.728996 0.211019 0.117136 -0.070847 0.045816 -153.514008 2.906568 5.203864 -43.928249 -0.800734 4.547822 -0.190721 -59.785362 43.133060 47.716824 -7.015204 7.127763 23.513735 0.071303 -0.755876 -0.336119 -3.029943 -12.440558 -1.678060 
0.024754 44.235382 1.230815 11.545500 -2.631280 -13.594300 -14.236635 -1.136912 1.889839 -6.101416 -0.487248 0.809931 11.478100 -20.785801 8.597310 12.125200 -3.100870 4.765100 2.000000 -2.000000 0.000000 -77.364998 -35.033501 152.682007 107.099998 -0.171776 0.149812 0.281513 -0.141062 104.630997 -2.000000 2.000000 0.000000 -49.966801 117.253998 100.513000 -95.342201 0.203029 0.116643 -0.070044 0.043030 -152.477997 2.903055 5.368529 -44.017197 -0.917622 4.466010 -0.198594 -59.073822 43.491047 47.242188 -7.062383 7.168356 22.717937 0.317402 -0.821083 -0.356671 -3.171009 -12.033905 -1.682756 
